<svg width="512" height="512" xmlns="http://www.w3.org/2000/svg" xmlns:svg="http://www.w3.org/2000/svg">
    <g>
        <title>Layer 1</title>
        <g id="svg_1">
            <g fill="#51105D" id="rocket_svg">
                <path d="m350.3,255.1c7.9,-87.6 -22.7,-176.9 -86.9,-241.1c-3.9,-3.9 -10.8,-3.9 -14.7,0c-64.2,64.2 -94.8,153.4 -86.9,241.1c-22.2,23.9 -34.4,54.7 -34.4,87.5c0,33.1 12.6,64.6 35.5,88.6c5.6,5.9 19.9,3.2 17.6,-9.8c-1.2,-6.8 -2.7,-13.4 -2.7,-19.9c0,-16.2 4.9,-31.6 14,-44.6c1.5,0.8 3.2,1.3 5,1.3l118.5,0c1.8,0 3.5,-0.5 5,-1.3c9.1,13 14,28.4 14,44.6c0,6.5 -1.7,13 -2.7,19.9c-2.1,14.4 12.9,14.9 17.6,9.8c22.8,-24.1 35.5,-55.5 35.5,-88.6c-0.1,-32.8 -12.2,-63.7 -34.4,-87.5zm-94.3,-218.7c18.6,20 33.8,42.5 45.6,66.4l-91.1,0c11.7,-24 26.9,-46.4 45.5,-66.4zm-98,351c-6.4,-13.9 -9.7,-29.1 -9.7,-44.8c0,-21.2 6.1,-41.5 17.5,-58.9c0.1,0.8 11,42.5 15.2,53.2c-12.5,14.4 -20.4,31.8 -23,50.5zm150.4,-50.1l-104.8,0c-29.4,-69 -29.1,-146.1 -2.4,-213.8l109.6,0c26.7,67.7 27,144.8 -2.4,213.8zm22.7,-0.4c5.8,-14.9 15.1,-52.6 15.2,-53.2c11.4,17.3 17.5,37.6 17.5,58.9c0,15.7 -3.4,30.9 -9.7,44.8c-2.7,-18.7 -10.6,-36.1 -23,-50.5z" id="svg_3"/>
                <path d="m213.9,375.6c-5.8,0 -10.4,4.7 -10.4,10.4l0,52.3c0,5.8 4.7,10.4 10.4,10.4s10.4,-4.7 10.4,-10.4l0,-52.3c0,-5.8 -4.7,-10.4 -10.4,-10.4z" id="svg_4"/>
                <path d="m256,375.6c-2.9,0 -5.5,1.2 -7.4,3.1c0,0 0,0 -0.1,0.1c-1.2,1.2 -2.1,2.8 -2.6,4.6c-0.2,0.9 -0.4,1.8 -0.4,2.8l0,104.5c0,0.8 0.1,1.6 0.3,2.4c1.1,4.6 5.2,8 10.1,8s9,-3.4 10.1,-8c0.2,-0.8 0.3,-1.6 0.3,-2.4l0,-104.7c0,-1 -0.1,-1.9 -0.4,-2.8c-1.1,-4.4 -5.1,-7.6 -9.9,-7.6z" id="svg_5"/>
                <path d="m298.1,375.6c-5.8,0 -10.4,4.7 -10.4,10.4l0,52.3c0,5.8 4.7,10.4 10.4,10.4s10.4,-4.7 10.4,-10.4l0,-52.3c0.1,-5.8 -4.6,-10.4 -10.4,-10.4z" id="svg_6"/>
            </g>
        </g>
    </g>
</svg>
