<svg width="210" height="210" xmlns="http://www.w3.org/2000/svg" xmlns:svg="http://www.w3.org/2000/svg">
	<style type="text/css">.st0{fill:#DD0031;}
		.st1{fill:#C3002F;}
		.st2{fill:#FFFFFF;}</style>
	<g>
		<title>Layer 1</title>
		<g id="svg_1">
			<polygon class="st0" points="105.48148345947266,4.981481552124023 105.48148345947266,4.981481552124023 105.48148345947266,4.981481552124023 12.381481170654297,38.18148422241211 26.581480026245117,161.28147888183594 105.48148345947266,204.98147583007812 105.48148345947266,204.98147583007812 105.48148345947266,204.98147583007812 184.3814697265625,161.28147888183594 198.58148193359375,38.18148422241211 " id="svg_2"/>
			<polygon class="st1" points="105.48148345947266,4.981481552124023 105.48148345947266,27.18148422241211 105.48148345947266,27.08148193359375 105.48148345947266,128.3814697265625 105.48148345947266,128.3814697265625 105.48148345947266,204.98147583007812 105.48148345947266,204.98147583007812 184.3814697265625,161.28147888183594 198.58148193359375,38.18148422241211 105.48148345947266,4.981481552124023 " id="svg_3"/>
			<path class="st2" d="m105.481482,27.081482l-58.2,130.5l0,0l21.7,0l0,0l11.7,-29.2l49.4,0l11.7,29.2l0,0l21.7,0l0,0l-58,-130.5l0,0l0,0l0,0l0,0zm17,83.3l-34,0l17,-40.9l17,40.9z" id="svg_4"/>
		</g>
	</g>
</svg>
